<svg xmlns="http://www.w3.org/2000/svg" width="58" height="22" viewBox="0 0 58 22">
  <path id="Subtraction_1" data-name="Subtraction 1" d="M50,22H8a8.009,8.009,0,0,1-8-8V8A8.009,8.009,0,0,1,8,0H50a8.009,8.009,0,0,1,8,8v6A8.008,8.008,0,0,1,50,22ZM17.088,8.112a.7.7,0,0,0-.448.129.51.51,0,0,0-.192.336.854.854,0,0,0,.064.448l2.949,6.851-.982,2.2a.875.875,0,0,0-.072.44.521.521,0,0,0,.168.344.56.56,0,0,0,.384.128.708.708,0,0,0,.424-.112,1,1,0,0,0,.28-.4l4.1-9.472a.9.9,0,0,0,.072-.44.519.519,0,0,0-.16-.328.552.552,0,0,0-.392-.129.671.671,0,0,0-.417.112,1.049,1.049,0,0,0-.272.4L20.153,14.53,17.744,8.624a.926.926,0,0,0-.257-.4A.64.64,0,0,0,17.088,8.112ZM42.31,14.387a.4.4,0,0,0-.063,0,.435.435,0,0,0-.256.136.49.49,0,0,0-.128.265.549.549,0,0,0,.04.3.613.613,0,0,0,.224.265,4.023,4.023,0,0,0,1.352.608,6.141,6.141,0,0,0,1.448.176,3.733,3.733,0,0,0,2.256-.625,1.987,1.987,0,0,0,.848-1.679,1.733,1.733,0,0,0-.52-1.32,3.264,3.264,0,0,0-1.56-.712L44.5,11.5a1.774,1.774,0,0,1-.9-.416,1,1,0,0,1-.288-.736,1.114,1.114,0,0,1,.464-.928,2.235,2.235,0,0,1,1.36-.352,3.33,3.33,0,0,1,.976.152,3.742,3.742,0,0,1,.976.472.554.554,0,0,0,.3.1l.04,0a.459.459,0,0,0,.273-.12.52.52,0,0,0,.151-.256.5.5,0,0,0-.015-.3.571.571,0,0,0-.216-.264,3.413,3.413,0,0,0-1.144-.584,4.8,4.8,0,0,0-1.336-.184,4.131,4.131,0,0,0-1.6.288,2.442,2.442,0,0,0-1.064.808,2.069,2.069,0,0,0-.376,1.239,1.852,1.852,0,0,0,.489,1.328,2.8,2.8,0,0,0,1.5.72l1.456.319a2.2,2.2,0,0,1,.959.409.9.9,0,0,1,.3.712,1.072,1.072,0,0,1-.464.912,2.343,2.343,0,0,1-1.375.337A4.63,4.63,0,0,1,43.8,15a4.5,4.5,0,0,1-1.209-.536A.64.64,0,0,0,42.31,14.387ZM38.192,8.08a4.337,4.337,0,0,0-1.577.272,3.276,3.276,0,0,0-1.192.792,3.44,3.44,0,0,0-.752,1.256,5.081,5.081,0,0,0-.256,1.663,4.775,4.775,0,0,0,.456,2.137,3.4,3.4,0,0,0,1.3,1.432,3.845,3.845,0,0,0,2.016.512,4.071,4.071,0,0,0,1.183-.185,3.284,3.284,0,0,0,1.121-.6A.52.52,0,0,0,40.7,15.1a.572.572,0,0,0,.008-.311.53.53,0,0,0-.152-.265.459.459,0,0,0-.273-.12l-.036,0a.52.52,0,0,0-.3.113,2.752,2.752,0,0,1-1.68.576A2.283,2.283,0,0,1,36.4,14.28a3.413,3.413,0,0,1-.655-2.2,4.327,4.327,0,0,1,.167-1.264A2.514,2.514,0,0,1,36.4,9.9a2.165,2.165,0,0,1,.785-.568,2.74,2.74,0,0,1,1.087-.2,2.966,2.966,0,0,1,.833.128,2.627,2.627,0,0,1,.848.448.525.525,0,0,0,.308.114l.035,0a.466.466,0,0,0,.28-.121.58.58,0,0,0,.16-.256.51.51,0,0,0-.208-.584,3.036,3.036,0,0,0-1.136-.608A4.446,4.446,0,0,0,38.192,8.08ZM26.08,8.112a.616.616,0,0,0-.464.168.684.684,0,0,0-.16.488V15.44a.7.7,0,0,0,.168.5.767.767,0,0,0,.976,0,.7.7,0,0,0,.167-.5V11.568a2.264,2.264,0,0,1,.584-1.64,2.572,2.572,0,0,1,1.672-.7L29.28,9.2a.676.676,0,0,0,.448-.192.571.571,0,0,0,.128-.432.549.549,0,0,0-.159-.408.5.5,0,0,0-.329-.106l-.055,0a3.174,3.174,0,0,0-1.776.544,2.437,2.437,0,0,0-.816,1V8.768a.661.661,0,0,0-.168-.488A.64.64,0,0,0,26.08,8.112Zm5.744.032a.618.618,0,0,0-.48.175.74.74,0,0,0-.16.512v6.544a.769.769,0,0,0,.16.52.6.6,0,0,0,.48.185.627.627,0,0,0,.488-.185.744.744,0,0,0,.168-.52V8.832A.7.7,0,0,0,32.3,8.32.651.651,0,0,0,31.824,8.144ZM10.048,4.64a.648.648,0,0,0-.488.175.717.717,0,0,0-.167.512v9.984a.7.7,0,0,0,.175.5.654.654,0,0,0,.5.184h5.888a.628.628,0,0,0,.448-.152.641.641,0,0,0,0-.848.625.625,0,0,0-.448-.152H10.7V5.328a.717.717,0,0,0-.167-.512A.65.65,0,0,0,10.048,4.64Zm21.776.128a.909.909,0,0,0-.624.2.745.745,0,0,0-.224.584.777.777,0,0,0,.224.584,1.02,1.02,0,0,0,1.256,0,.793.793,0,0,0,.216-.584.76.76,0,0,0-.216-.584A.9.9,0,0,0,31.824,4.768Z" transform="translate(0)" fill="#fff" />
</svg>